# xmcd
#
# Track frame offsets: 
#        182
#        23605
#        42495
#        67772
#        91452
#        111237
#        131550
#        156487
#
# Disc length: 2416 seconds
#
# Revision: 6
# Processed by: cddbd v1.5.2PL0 Copyright (c) Steve Scherf et al.
# Submitted via: ExactAudioCopy v0.99pb5
#
DISCID=65096e08
DTITLE=Spandau Ballet - Parade
DYEAR=1984
DGENRE=Pop
TTITLE0=Only When You Leave
TTITLE1=Highly Strung
TTITLE2=I'll Fly For You
TTITLE3=Nature Of The Beast
TTITLE4=Revenge For Love
TTITLE5=Always In The Back Of My Mind
TTITLE6=With The Pride
TTITLE7=Round And Round
EXTD=YEAR: 1984
EXTT0=
EXTT1=
EXTT2=
EXTT3=
EXTT4=
EXTT5=
EXTT6=
EXTT7=
PLAYORDER=
